<svg width="20" height="20" viewBox="0 0 20 20" fill="none" xmlns="http://www.w3.org/2000/svg">
<circle cx="10" cy="10" r="9.5" stroke="white"/>
<path d="M9.16667 5.83333C9.16667 5.61232 9.25446 5.40036 9.41075 5.24408C9.56703 5.0878 9.77899 5 10 5C10.221 5 10.433 5.0878 10.5893 5.24408C10.7455 5.40036 10.8333 5.61232 10.8333 5.83333V9.16667H14.1667C14.3877 9.16667 14.5996 9.25446 14.7559 9.41075C14.9122 9.56703 15 9.77899 15 10C15 10.221 14.9122 10.433 14.7559 10.5893C14.5996 10.7455 14.3877 10.8333 14.1667 10.8333H10.8333V14.1667C10.8333 14.3877 10.7455 14.5996 10.5893 14.7559C10.433 14.9122 10.221 15 10 15C9.77899 15 9.56703 14.9122 9.41075 14.7559C9.25446 14.5996 9.16667 14.3877 9.16667 14.1667V10.8333H5.83333C5.61232 10.8333 5.40036 10.7455 5.24408 10.5893C5.0878 10.433 5 10.221 5 10C5 9.77899 5.0878 9.56703 5.24408 9.41075C5.40036 9.25446 5.61232 9.16667 5.83333 9.16667H9.16667V5.83333Z" fill="white"/>
</svg>
