<svg width="17" height="14" viewBox="0 0 17 14" fill="none" xmlns="http://www.w3.org/2000/svg">
<path fill-rule="evenodd" clip-rule="evenodd" d="M5.70711 0.292893C6.09763 0.683417 6.09763 1.31658 5.70711 1.70711L3.41421 4H12C13.3261 4 14.5979 4.52678 15.5355 5.46447C16.4732 6.40215 17 7.67392 17 9C17 10.3261 16.4732 11.5979 15.5355 12.5355C14.5979 13.4732 13.3261 14 12 14H11C10.4477 14 10 13.5523 10 13C10 12.4477 10.4477 12 11 12H12C12.7956 12 13.5587 11.6839 14.1213 11.1213C14.6839 10.5587 15 9.79565 15 9C15 8.20435 14.6839 7.44129 14.1213 6.87868C13.5587 6.31607 12.7956 6 12 6H3.41421L5.70711 8.29289C6.09763 8.68342 6.09763 9.31658 5.70711 9.70711C5.31658 10.0976 4.68342 10.0976 4.29289 9.70711L0.292893 5.70711C-0.0976311 5.31658 -0.0976311 4.68342 0.292893 4.29289L4.29289 0.292893C4.68342 -0.0976311 5.31658 -0.0976311 5.70711 0.292893Z" fill="white"/>
</svg>
