<svg width="19" height="21" viewBox="0 0 19 21" fill="none" xmlns="http://www.w3.org/2000/svg">
<path d="M4.46875 10.5C4.27813 10.5 4.09531 10.5757 3.96052 10.7105C3.82573 10.8453 3.75 11.0281 3.75 11.2188V14.8125C3.75 15.0031 3.82573 15.1859 3.96052 15.3207C4.09531 15.4555 4.27813 15.5312 4.46875 15.5312C4.65937 15.5312 4.84219 15.4555 4.97698 15.3207C5.11177 15.1859 5.1875 15.0031 5.1875 14.8125V14.0938H5.54688C6.02344 14.0938 6.48048 13.9044 6.81746 13.5675C7.15444 13.2305 7.34375 12.7734 7.34375 12.2969C7.34375 11.8203 7.15444 11.3633 6.81746 11.0263C6.48048 10.6893 6.02344 10.5 5.54688 10.5H4.46875ZM5.54688 12.6562H5.1875V11.9375H5.54688C5.64219 11.9375 5.7336 11.9754 5.80099 12.0428C5.86839 12.1102 5.90625 12.2016 5.90625 12.2969C5.90625 12.3922 5.86839 12.4836 5.80099 12.551C5.7336 12.6184 5.64219 12.6562 5.54688 12.6562ZM8.0625 11.2188C8.0625 11.0281 8.13823 10.8453 8.27302 10.7105C8.40781 10.5757 8.59063 10.5 8.78125 10.5H9.14062C9.80781 10.5 10.4477 10.765 10.9194 11.2368C11.3912 11.7086 11.6562 12.3484 11.6562 13.0156C11.6562 13.6828 11.3912 14.3227 10.9194 14.7944C10.4477 15.2662 9.80781 15.5312 9.14062 15.5312H8.78125C8.59063 15.5312 8.40781 15.4555 8.27302 15.3207C8.13823 15.1859 8.0625 15.0031 8.0625 14.8125V11.2188ZM9.5 14.0327C9.71059 13.9586 9.89299 13.8209 10.022 13.6388C10.1511 13.4566 10.2204 13.2389 10.2204 13.0156C10.2204 12.7924 10.1511 12.5746 10.022 12.3925C9.89299 12.2103 9.71059 12.0727 9.5 11.9986V14.0327ZM12.375 14.8125V11.2188C12.375 11.0281 12.4507 10.8453 12.5855 10.7105C12.7203 10.5757 12.9031 10.5 13.0938 10.5H15.25C15.4406 10.5 15.6234 10.5757 15.7582 10.7105C15.893 10.8453 15.9688 11.0281 15.9688 11.2188C15.9688 11.4094 15.893 11.5922 15.7582 11.727C15.6234 11.8618 15.4406 11.9375 15.25 11.9375H13.8125V12.6562H15.25C15.4406 12.6562 15.6234 12.732 15.7582 12.8668C15.893 13.0016 15.9688 13.1844 15.9688 13.375C15.9688 13.5656 15.893 13.7484 15.7582 13.8832C15.6234 14.018 15.4406 14.0938 15.25 14.0938H13.8125V14.8125C13.8125 15.0031 13.7368 15.1859 13.602 15.3207C13.4672 15.4555 13.2844 15.5312 13.0938 15.5312C12.9031 15.5312 12.7203 15.4555 12.5855 15.3207C12.4507 15.1859 12.375 15.0031 12.375 14.8125ZM2.3125 2.59375V8.34375H1.59375C1.2125 8.34375 0.846867 8.4952 0.577284 8.76478C0.3077 9.03437 0.15625 9.4 0.15625 9.78125V16.25C0.15625 16.6312 0.3077 16.9969 0.577284 17.2665C0.846867 17.536 1.2125 17.6875 1.59375 17.6875H2.3125V18.4062C2.3125 18.9781 2.53968 19.5266 2.94405 19.9309C3.34843 20.3353 3.89688 20.5625 4.46875 20.5625H14.5312C15.1031 20.5625 15.6516 20.3353 16.0559 19.9309C16.4603 19.5266 16.6875 18.9781 16.6875 18.4062V17.6875H17.4062C17.7875 17.6875 18.1531 17.536 18.4227 17.2665C18.6923 16.9969 18.8438 16.6312 18.8438 16.25V9.78125C18.8438 9.4 18.6923 9.03437 18.4227 8.76478C18.1531 8.4952 17.7875 8.34375 17.4062 8.34375H16.6875V6.06388C16.6872 5.4923 16.4599 4.94423 16.0557 4.54013L12.5856 1.06856C12.1812 0.664423 11.6328 0.437432 11.0611 0.4375H4.46875C3.89688 0.4375 3.34843 0.664676 2.94405 1.06905C2.53968 1.47343 2.3125 2.02188 2.3125 2.59375ZM4.46875 1.875H9.5V5.46875C9.5 6.04062 9.72718 6.58907 10.1316 6.99345C10.5359 7.39782 11.0844 7.625 11.6562 7.625H15.25V8.34375H3.75V2.59375C3.75 2.40313 3.82573 2.22031 3.96052 2.08552C4.09531 1.95073 4.27813 1.875 4.46875 1.875ZM3.75 18.4062V17.6875H15.25V18.4062C15.25 18.5969 15.1743 18.7797 15.0395 18.9145C14.9047 19.0493 14.7219 19.125 14.5312 19.125H4.46875C4.27813 19.125 4.09531 19.0493 3.96052 18.9145C3.82573 18.7797 3.75 18.5969 3.75 18.4062ZM15.25 6.06388V6.1875H11.6562C11.4656 6.1875 11.2828 6.11177 11.148 5.97698C11.0132 5.84219 10.9375 5.65937 10.9375 5.46875V1.875H11.0611C11.2517 1.87504 11.4345 1.95079 11.5693 2.08559L15.0394 5.55572C15.1742 5.69048 15.25 5.87327 15.25 6.06388ZM1.59375 9.78125H17.4062V16.25H1.59375V9.78125Z" fill="white"/>
</svg>
