<svg width="20" height="20" viewBox="0 0 20 20" fill="none" xmlns="http://www.w3.org/2000/svg">
<path d="M8.856 6.15512C8.66573 6.04966 8.45123 5.99567 8.2337 5.99851C8.01617 6.00135 7.80315 6.06091 7.61569 6.1713C7.42824 6.28169 7.27284 6.4391 7.16485 6.62795C7.05687 6.81681 7.00005 7.03058 7 7.24812V12.7521C7.00005 12.9697 7.05687 13.1834 7.16485 13.3723C7.27284 13.5611 7.42824 13.7186 7.61569 13.8289C7.80315 13.9393 8.01617 13.9989 8.2337 14.0017C8.45123 14.0046 8.66573 13.9506 8.856 13.8451L14.613 10.6561C14.7301 10.5912 14.8277 10.4962 14.8957 10.3808C14.9636 10.2655 14.9995 10.134 14.9995 10.0001C14.9995 9.86624 14.9636 9.73479 14.8957 9.61944C14.8277 9.50408 14.7301 9.40902 14.613 9.34412L8.856 6.15512ZM10 0.00012207C4.477 0.00012207 0 4.47712 0 10.0001C0 15.5231 4.477 20.0001 10 20.0001C15.523 20.0001 20 15.5231 20 10.0001C20 4.47712 15.523 0.00012207 10 0.00012207ZM1.5 10.0001C1.5 7.74578 2.39553 5.58377 3.98959 3.98971C5.58365 2.39566 7.74566 1.50012 10 1.50012C12.2543 1.50012 14.4163 2.39566 16.0104 3.98971C17.6045 5.58377 18.5 7.74578 18.5 10.0001C18.5 12.2545 17.6045 14.4165 16.0104 16.0105C14.4163 17.6046 12.2543 18.5001 10 18.5001C7.74566 18.5001 5.58365 17.6046 3.98959 16.0105C2.39553 14.4165 1.5 12.2545 1.5 10.0001Z" fill="white"/>
</svg>
