<svg width="17" height="17" viewBox="0 0 17 17" fill="none" xmlns="http://www.w3.org/2000/svg">
<path d="M9.6875 1.78125C9.6875 1.50775 9.57885 1.24544 9.38545 1.05205C9.19206 0.858649 8.92975 0.75 8.65625 0.75C8.38275 0.75 8.12044 0.858649 7.92705 1.05205C7.73365 1.24544 7.625 1.50775 7.625 1.78125V7.625H1.78125C1.50775 7.625 1.24544 7.73365 1.05205 7.92705C0.858649 8.12044 0.75 8.38275 0.75 8.65625C0.75 8.92975 0.858649 9.19206 1.05205 9.38545C1.24544 9.57885 1.50775 9.6875 1.78125 9.6875H7.625V15.5312C7.625 15.8048 7.73365 16.0671 7.92705 16.2605C8.12044 16.4538 8.38275 16.5625 8.65625 16.5625C8.92975 16.5625 9.19206 16.4538 9.38545 16.2605C9.57885 16.0671 9.6875 15.8048 9.6875 15.5312V9.6875H15.5312C15.8048 9.6875 16.0671 9.57885 16.2605 9.38545C16.4538 9.19206 16.5625 8.92975 16.5625 8.65625C16.5625 8.38275 16.4538 8.12044 16.2605 7.92705C16.0671 7.73365 15.8048 7.625 15.5312 7.625H9.6875V1.78125Z" fill="black"/>
</svg>
