<svg width="23" height="23" viewBox="0 0 23 23" fill="none" xmlns="http://www.w3.org/2000/svg">
<path d="M7.1875 1.43762C7.37812 1.43762 7.56094 1.51335 7.69573 1.64814C7.83052 1.78293 7.90625 1.96575 7.90625 2.15637V2.87512H10.7813V2.15637C10.7813 1.96575 10.857 1.78293 10.9918 1.64814C11.1266 1.51335 11.3094 1.43762 11.5 1.43762C11.6906 1.43762 11.8734 1.51335 12.0082 1.64814C12.143 1.78293 12.2188 1.96575 12.2188 2.15637V2.87512H15.0938V2.15637C15.0938 1.96575 15.1695 1.78293 15.3043 1.64814C15.4391 1.51335 15.6219 1.43762 15.8125 1.43762C16.0031 1.43762 16.1859 1.51335 16.3207 1.64814C16.4555 1.78293 16.5313 1.96575 16.5313 2.15637V2.87512C17.1031 2.87512 17.6516 3.1023 18.056 3.50667C18.4603 3.91105 18.6875 4.4595 18.6875 5.03137V8.67687C18.1721 8.76649 17.682 8.9655 17.25 9.2605V5.03137C17.25 4.84075 17.1743 4.65793 17.0395 4.52314C16.9047 4.38835 16.7219 4.31262 16.5313 4.31262H6.46875C6.27813 4.31262 6.09531 4.38835 5.96052 4.52314C5.82573 4.65793 5.75 4.84075 5.75 5.03137V19.4064C5.75 19.597 5.82573 19.7798 5.96052 19.9146C6.09531 20.0494 6.27813 20.1251 6.46875 20.1251H8.69256V20.128C8.56995 20.6043 8.60423 21.1074 8.79031 21.5626H6.46875C5.89688 21.5626 5.34843 21.3354 4.94405 20.9311C4.53968 20.5267 4.3125 19.9782 4.3125 19.4064V5.03137C4.3125 4.4595 4.53968 3.91105 4.94405 3.50667C5.34843 3.1023 5.89688 2.87512 6.46875 2.87512V2.15637C6.46875 1.96575 6.54448 1.78293 6.67927 1.64814C6.81406 1.51335 6.99688 1.43762 7.1875 1.43762ZM14.375 11.5001C14.5288 11.5001 14.6711 11.549 14.789 11.6309L13.4809 12.9376H8.625C8.43438 12.9376 8.25156 12.8619 8.11677 12.7271C7.98198 12.5923 7.90625 12.4095 7.90625 12.2189C7.90625 12.0282 7.98198 11.8454 8.11677 11.7106C8.25156 11.5758 8.43438 11.5001 8.625 11.5001H14.375ZM10.0568 16.4379C10.0341 16.2649 9.94921 16.1061 9.81802 15.991C9.68682 15.8759 9.51825 15.8125 9.34375 15.8126H8.625C8.43438 15.8126 8.25156 15.8883 8.11677 16.0231C7.98198 16.1579 7.90625 16.3407 7.90625 16.5314C7.90625 16.722 7.98198 16.9048 8.11677 17.0396C8.25156 17.1744 8.43438 17.2501 8.625 17.2501H9.34375C9.42042 17.2503 9.49662 17.2382 9.56944 17.2142C9.70888 16.9425 9.87131 16.6823 10.0568 16.4379ZM8.625 7.18762C8.43438 7.18762 8.25156 7.26335 8.11677 7.39814C7.98198 7.53293 7.90625 7.71575 7.90625 7.90637C7.90625 8.097 7.98198 8.27981 8.11677 8.41461C8.25156 8.5494 8.43438 8.62512 8.625 8.62512H14.375C14.5656 8.62512 14.7484 8.5494 14.8832 8.41461C15.018 8.27981 15.0938 8.097 15.0938 7.90637C15.0938 7.71575 15.018 7.53293 14.8832 7.39814C14.7484 7.26335 14.5656 7.18762 14.375 7.18762H8.625ZM17.7359 10.7167C18.1566 10.296 18.7272 10.0596 19.3222 10.0596C19.9171 10.0596 20.4877 10.296 20.9084 10.7167C21.3291 11.1374 21.5655 11.708 21.5655 12.303C21.5655 12.8979 21.3291 13.4685 20.9084 13.8892L14.743 20.0532C14.2315 20.5651 13.5906 20.9283 12.8886 21.1041L11.1478 21.5396C11.0008 21.5765 10.8468 21.5746 10.7008 21.5342C10.5548 21.4938 10.4217 21.4162 10.3146 21.3091C10.2074 21.202 10.1299 21.0689 10.0895 20.9229C10.0491 20.7768 10.0472 20.6228 10.0841 20.4759L10.5211 18.7365C10.6964 18.0336 11.0587 17.3924 11.5704 16.8821L17.7359 10.7167Z" fill="white"/>
</svg>
