<svg width="20" height="20" viewBox="0 0 20 20" fill="none" xmlns="http://www.w3.org/2000/svg">
<path d="M9.37481 10.3664V1.87512C9.37481 1.70936 9.44066 1.55039 9.55787 1.43318C9.67508 1.31597 9.83405 1.25012 9.99981 1.25012C10.1656 1.25012 10.3245 1.31597 10.4418 1.43318C10.559 1.55039 10.6248 1.70936 10.6248 1.87512V10.3664L13.3073 7.68262C13.4247 7.56526 13.5838 7.49933 13.7498 7.49933C13.9158 7.49933 14.075 7.56526 14.1923 7.68262C14.3097 7.79998 14.3756 7.95915 14.3756 8.12512C14.3756 8.29109 14.3097 8.45026 14.1923 8.56762L10.4423 12.3176C10.3843 12.3758 10.3153 12.422 10.2394 12.4535C10.1634 12.485 10.082 12.5012 9.99981 12.5012C9.9176 12.5012 9.8362 12.485 9.76027 12.4535C9.68434 12.422 9.61537 12.3758 9.55731 12.3176L5.80731 8.56762C5.7492 8.50951 5.70311 8.44053 5.67166 8.3646C5.64021 8.28868 5.62402 8.2073 5.62402 8.12512C5.62402 8.04294 5.64021 7.96157 5.67166 7.88564C5.70311 7.80972 5.7492 7.74073 5.80731 7.68262C5.86542 7.62451 5.93441 7.57842 6.01033 7.54697C6.08626 7.51552 6.16763 7.49933 6.24981 7.49933C6.33199 7.49933 6.41337 7.51552 6.48929 7.54697C6.56522 7.57842 6.6342 7.62451 6.69231 7.68262L9.37481 10.3664ZM9.99981 18.7501C10.6629 18.7501 11.2987 18.4867 11.7676 18.0179C12.2364 17.549 12.4998 16.9132 12.4998 16.2501C12.4998 15.5871 12.2364 14.9512 11.7676 14.4824C11.2987 14.0135 10.6629 13.7501 9.99981 13.7501C9.33677 13.7501 8.70089 14.0135 8.23205 14.4824C7.76321 14.9512 7.49981 15.5871 7.49981 16.2501C7.49981 16.9132 7.76321 17.549 8.23205 18.0179C8.70089 18.4867 9.33677 18.7501 9.99981 18.7501Z" fill="white"/>
</svg>
