<svg width="20" height="20" viewBox="0 0 20 20" fill="none" xmlns="http://www.w3.org/2000/svg">
<path d="M10.0003 1.66666C5.40032 1.66666 1.66699 5.4 1.66699 10C1.66699 14.6 5.40032 18.3333 10.0003 18.3333C14.6003 18.3333 18.3337 14.6 18.3337 10C18.3337 5.4 14.6003 1.66666 10.0003 1.66666ZM10.0003 16.6667C6.31699 16.6667 3.33366 13.6833 3.33366 10C3.33366 6.31666 6.31699 3.33333 10.0003 3.33333C13.6837 3.33333 16.667 6.31666 16.667 10C16.667 13.6833 13.6837 16.6667 10.0003 16.6667ZM13.3337 13.3333H6.66699V6.66666H13.3337V13.3333Z" fill="white"/>
</svg>
