<svg width="24" height="24" viewBox="0 0 24 24" fill="none" xmlns="http://www.w3.org/2000/svg">
<path d="M10.325 4.31712C10.751 2.56112 13.249 2.56112 13.675 4.31712C13.7389 4.58092 13.8642 4.8259 14.0407 5.03212C14.2172 5.23834 14.4399 5.39998 14.6907 5.50387C14.9414 5.60776 15.2132 5.65097 15.4838 5.62999C15.7544 5.60901 16.0162 5.52442 16.248 5.38312C17.791 4.44312 19.558 6.20912 18.618 7.75312C18.4769 7.98478 18.3924 8.24646 18.3715 8.5169C18.3506 8.78733 18.3938 9.05889 18.4975 9.3095C18.6013 9.56011 18.7627 9.7827 18.9687 9.95917C19.1747 10.1356 19.4194 10.261 19.683 10.3251C21.439 10.7511 21.439 13.2491 19.683 13.6751C19.4192 13.739 19.1742 13.8643 18.968 14.0408C18.7618 14.2173 18.6001 14.44 18.4963 14.6908C18.3924 14.9415 18.3491 15.2133 18.3701 15.4839C18.3911 15.7545 18.4757 16.0164 18.617 16.2481C19.557 17.7911 17.791 19.5581 16.247 18.6181C16.0153 18.477 15.7537 18.3926 15.4832 18.3716C15.2128 18.3507 14.9412 18.3939 14.6906 18.4977C14.44 18.6014 14.2174 18.7629 14.0409 18.9688C13.8645 19.1748 13.7391 19.4196 13.675 19.6831C13.249 21.4391 10.751 21.4391 10.325 19.6831C10.2611 19.4193 10.1358 19.1743 9.95929 18.9681C9.7828 18.7619 9.56011 18.6003 9.30935 18.4964C9.05859 18.3925 8.78683 18.3493 8.51621 18.3703C8.24559 18.3912 7.98375 18.4758 7.752 18.6171C6.209 19.5571 4.442 17.7911 5.382 16.2471C5.5231 16.0155 5.60755 15.7538 5.62848 15.4833C5.64942 15.2129 5.60624 14.9414 5.50247 14.6907C5.3987 14.4401 5.23726 14.2175 5.03127 14.0411C4.82529 13.8646 4.58056 13.7392 4.317 13.6751C2.561 13.2491 2.561 10.7511 4.317 10.3251C4.5808 10.2612 4.82578 10.1359 5.032 9.95941C5.23822 9.78292 5.39985 9.56023 5.50375 9.30947C5.60764 9.05871 5.65085 8.78696 5.62987 8.51634C5.60889 8.24572 5.5243 7.98387 5.383 7.75212C4.443 6.20912 6.209 4.44212 7.753 5.38212C8.753 5.99012 10.049 5.45212 10.325 4.31712Z" stroke="white" stroke-width="2" stroke-linecap="round" stroke-linejoin="round"/>
<path d="M12 15.0001C13.6569 15.0001 15 13.657 15 12.0001C15 10.3433 13.6569 9.00012 12 9.00012C10.3431 9.00012 9 10.3433 9 12.0001C9 13.657 10.3431 15.0001 12 15.0001Z" stroke="white" stroke-width="2" stroke-linecap="round" stroke-linejoin="round"/>
</svg>
