<svg width="19" height="19" viewBox="0 0 19 19" fill="none" xmlns="http://www.w3.org/2000/svg">
<path d="M16.458 15.5934L12.4947 11.593C13.2703 10.6208 13.7379 9.38872 13.7379 8.04907C13.7379 4.91333 11.1959 2.37134 8.05645 2.37134C4.91699 2.37134 2.375 4.91704 2.375 8.05278C2.375 11.1885 4.91699 13.7305 8.05645 13.7305C9.41465 13.7305 10.6578 13.2555 11.6375 12.4614L15.5748 16.4358C15.6936 16.562 15.8568 16.625 16.0164 16.625C16.1686 16.625 16.3207 16.5694 16.4357 16.4581C16.6807 16.2243 16.6881 15.8383 16.458 15.5934ZM8.05645 12.5096C6.86523 12.5096 5.74453 12.0458 4.90215 11.2034C4.05977 10.361 3.5959 9.24028 3.5959 8.05278C3.5959 6.86157 4.05977 5.74087 4.90215 4.9022C5.74453 4.05981 6.86523 3.59595 8.05645 3.59595C9.24766 3.59595 10.3684 4.05981 11.2107 4.9022C12.0531 5.74458 12.517 6.86528 12.517 8.05278C12.517 9.24399 12.0531 10.3647 11.2107 11.2034C10.3684 12.0458 9.24766 12.5096 8.05645 12.5096Z" fill="white"/>
</svg>
