<svg width="30" height="30" viewBox="0 0 30 30" fill="none" xmlns="http://www.w3.org/2000/svg">
<path fill-rule="evenodd" clip-rule="evenodd" d="M0 15C0 6.71852 6.71852 0 15 0C23.2815 0 30 6.71852 30 15C30 23.2815 23.2815 30 15 30C6.71852 30 0 23.2815 0 15ZM15 2.30769C7.99302 2.30769 2.30769 7.99302 2.30769 15C2.30769 22.007 7.99302 27.6923 15 27.6923C22.007 27.6923 27.6923 22.007 27.6923 15C27.6923 7.99302 22.007 2.30769 15 2.30769Z" fill="white"/>
<path fill-rule="evenodd" clip-rule="evenodd" d="M22.5361 8.49947C23.0159 8.89997 23.0781 9.61115 22.6751 10.0879L13.1457 21.3624C12.9345 21.6123 12.6248 21.759 12.2965 21.7645C11.9681 21.7701 11.6535 21.634 11.4338 21.3915L7.34982 16.8817C6.93069 16.4189 6.96844 15.706 7.43415 15.2894C7.89985 14.8729 8.61715 14.9104 9.03629 15.3732L12.2476 18.9193L20.9378 8.6376C21.3408 8.16082 22.0564 8.09897 22.5361 8.49947Z" fill="white"/>
</svg>
