<svg width="20" height="20" viewBox="0 0 20 20" fill="none" xmlns="http://www.w3.org/2000/svg">
<path d="M12.6824 2.68263C12.6242 2.74068 12.578 2.80965 12.5465 2.88558C12.515 2.96151 12.4987 3.04292 12.4987 3.12513C12.4987 3.20733 12.515 3.28874 12.5465 3.36467C12.578 3.4406 12.6242 3.50957 12.6824 3.56763L15.3661 6.25013H12.4461C10.6111 6.25013 8.81486 6.25013 7.16361 6.74513C5.45736 7.25763 3.93236 8.28763 2.60486 10.2789C2.51875 10.4168 2.48978 10.5828 2.52409 10.7418C2.5584 10.9007 2.65329 11.04 2.78862 11.1301C2.92395 11.2202 3.08907 11.254 3.24893 11.2244C3.40879 11.1948 3.55082 11.104 3.64486 10.9714C4.81736 9.21263 6.10486 8.36763 7.52361 7.94263C8.98111 7.50513 10.6036 7.50013 12.4999 7.50013H15.3661L12.6824 10.1826C12.6242 10.2407 12.5782 10.3097 12.5467 10.3856C12.5153 10.4616 12.4991 10.5429 12.4991 10.6251C12.4991 10.7073 12.5153 10.7887 12.5467 10.8646C12.5782 10.9405 12.6242 11.0095 12.6824 11.0676C12.7405 11.1257 12.8095 11.1718 12.8854 11.2033C12.9613 11.2347 13.0427 11.2509 13.1249 11.2509C13.207 11.2509 13.2884 11.2347 13.3643 11.2033C13.4403 11.1718 13.5092 11.1257 13.5674 11.0676L17.3174 7.31763C17.3756 7.25957 17.4217 7.1906 17.4532 7.11467C17.4848 7.03874 17.501 6.95733 17.501 6.87513C17.501 6.79292 17.4848 6.71151 17.4532 6.63558C17.4217 6.55965 17.3756 6.49068 17.3174 6.43263L13.5674 2.68263C13.5093 2.62442 13.4403 2.57824 13.3644 2.54673C13.2885 2.51523 13.2071 2.49901 13.1249 2.49901C13.0427 2.49901 12.9612 2.51523 12.8853 2.54673C12.8094 2.57824 12.7404 2.62442 12.6824 2.68263ZM9.99986 17.5001C9.33682 17.5001 8.70093 17.2367 8.23209 16.7679C7.76325 16.2991 7.49986 15.6632 7.49986 15.0001C7.49986 14.3371 7.76325 13.7012 8.23209 13.2324C8.70093 12.7635 9.33682 12.5001 9.99986 12.5001C10.6629 12.5001 11.2988 12.7635 11.7676 13.2324C12.2365 13.7012 12.4999 14.3371 12.4999 15.0001C12.4999 15.6632 12.2365 16.2991 11.7676 16.7679C11.2988 17.2367 10.6629 17.5001 9.99986 17.5001Z" fill="white"/>
</svg>
