<svg width="26" height="26" viewBox="0 0 26 26" fill="none" xmlns="http://www.w3.org/2000/svg">
<path d="M13 0C16.4478 0 19.7544 1.36964 22.1924 3.80761C24.6304 6.24558 26 9.55218 26 13C26 16.4478 24.6304 19.7544 22.1924 22.1924C19.7544 24.6304 16.4478 26 13 26C9.55219 26 6.24558 24.6304 3.80761 22.1924C1.36964 19.7544 0 16.4478 0 13C0 9.55218 1.36964 6.24558 3.80761 3.80761C6.24558 1.36964 9.55219 0 13 0ZM7.30836 7.01054L7.14764 7.14764L7.01054 7.31309C6.87434 7.51045 6.8014 7.74457 6.8014 7.98436C6.8014 8.22416 6.87434 8.45828 7.01054 8.65564L7.14764 8.82109L11.3313 13.0024L7.15236 17.1789L7.01527 17.342C6.87855 17.5396 6.80531 17.7742 6.80531 18.0145C6.80531 18.2547 6.87855 18.4893 7.01527 18.6869L7.15236 18.85L7.31782 18.9871C7.51517 19.1233 7.7493 19.1962 7.98909 19.1962C8.22888 19.1962 8.46301 19.1233 8.66036 18.9871L8.82582 18.85L13 14.6735L17.1836 18.8571L17.3467 18.9918C17.5441 19.128 17.7782 19.201 18.018 19.201C18.2578 19.201 18.4919 19.128 18.6893 18.9918L18.8547 18.8547L18.9895 18.6893C19.1257 18.4919 19.1986 18.2578 19.1986 18.018C19.1986 17.7782 19.1257 17.5441 18.9895 17.3467L18.8524 17.1836L14.6711 13L18.8595 8.82109L18.9965 8.65564C19.1327 8.45828 19.2057 8.22416 19.2057 7.98436C19.2057 7.74457 19.1327 7.51045 18.9965 7.31309L18.8595 7.14764L18.694 7.01291C18.4966 6.87671 18.2625 6.80376 18.0227 6.80376C17.7829 6.80376 17.5488 6.87671 17.3515 7.01291L17.1884 7.14764L13 11.3313L8.81636 7.14764L8.65327 7.01291C8.48503 6.89636 8.28941 6.8255 8.08556 6.80727C7.88171 6.78904 7.67661 6.82406 7.49036 6.90891L7.31073 7.01054H7.30836Z" fill="white"/>
</svg>
