<svg width="26" height="26" viewBox="0 0 26 26" fill="none" xmlns="http://www.w3.org/2000/svg">
<path d="M26 13C26 20.1797 20.1797 26 13 26C5.82029 26 0 20.1797 0 13C0 5.82029 5.82029 0 13 0C20.1797 0 26 5.82029 26 13ZM24.1429 13C24.1429 6.84636 19.1536 1.85714 13 1.85714C6.84636 1.85714 1.85714 6.84636 1.85714 13C1.85714 19.1536 6.84636 24.1429 13 24.1429C19.1536 24.1429 24.1429 19.1536 24.1429 13Z" fill="white"/>
<rect x="7.38184" y="11.9501" width="7.04102" height="2" transform="rotate(43.7089 7.38184 11.9501)" fill="white"/>
<rect x="20.585" y="9.42206" width="12.9092" height="2" transform="rotate(135.318 20.585 9.42206)" fill="white"/>
</svg>
