<svg width="10" height="10" viewBox="0 0 10 10" fill="none" xmlns="http://www.w3.org/2000/svg">
<path d="M4.16667 0.833334C4.16667 0.61232 4.25446 0.400358 4.41075 0.244078C4.56703 0.0877972 4.77899 0 5 0C5.22101 0 5.43298 0.0877972 5.58926 0.244078C5.74554 0.400358 5.83333 0.61232 5.83333 0.833334V4.16667H9.16667C9.38768 4.16667 9.59964 4.25446 9.75592 4.41075C9.9122 4.56703 10 4.77899 10 5C10 5.22101 9.9122 5.43298 9.75592 5.58926C9.59964 5.74554 9.38768 5.83333 9.16667 5.83333H5.83333V9.16667C5.83333 9.38768 5.74554 9.59964 5.58926 9.75592C5.43298 9.9122 5.22101 10 5 10C4.77899 10 4.56703 9.9122 4.41075 9.75592C4.25446 9.59964 4.16667 9.38768 4.16667 9.16667V5.83333H0.833334C0.61232 5.83333 0.400358 5.74554 0.244078 5.58926C0.0877972 5.43298 0 5.22101 0 5C0 4.77899 0.0877972 4.56703 0.244078 4.41075C0.400358 4.25446 0.61232 4.16667 0.833334 4.16667H4.16667V0.833334Z" fill="white"/>
</svg>
