<?xml version="1.0" encoding="UTF-8"?>
<svg id="Layer_2" data-name="Layer 2" xmlns="http://www.w3.org/2000/svg" viewBox="0 0 133.23 18.57">
  <defs>
    <style>
      .cls-1, .cls-2 {
        fill: #000;
      }

      .cls-3 {
        fill: #dd5610;
      }

      .cls-2 {
        fill-rule: evenodd;
      }
    </style>
  </defs>
  <g id="_圖層_1" data-name="圖層 1">
    <g>
      <path class="cls-2" d="M4.97,.02h11.7V4.09H6.25c-.71,0-1.28,.44-1.28,.99V13.6c0,.54,.59,.99,1.28,.99h4.33c.72,0,1.21-.44,1.21-.99v-2.37h-2.09v-3.86h6.98v7.11c0,2.25-1.26,4.08-4.89,4.08H4.97c-3.7,0-4.97-1.84-4.97-4.08V4.11C0,1.86,1.26,.02,4.97,.02Z"/>
      <path class="cls-2" d="M18.48,.02h4.12V7.89c0,.77,.66,1.02,1.22,1.02h1.93V.02h4.12V8.92h1.94c.56,0,1.23-.26,1.23-1.02V.02h4.12V8.07c0,2.66-.72,4.83-4.83,4.83h-9c-4.11,0-4.83-2.17-4.83-4.83V.02Z"/>
      <rect class="cls-3" x="18.48" y="15" width="18.66" height="3.58"/>
      <rect class="cls-1" x="42.67" y=".02" width="4.98" height="18.55"/>
      <path class="cls-2" d="M49.42,18.57h4.96V5.12c0-.49,.39-1.03,1.19-1.03h4.49c.81,0,1.19,.54,1.19,1.03v13.45h4.97V4.31C66.22,1.95,65.49,.02,60.88,.02h-6.11c-4.57,0-5.35,1.93-5.35,4.28v14.27Z"/>
      <path class="cls-2" d="M78.01,7.38h-3.96c-.63,0-1.19-.45-1.19-.99v-1.3c0-.55,.57-.99,1.19-.99h14.1v14.48h5V4.09h4.96V.02h-25.18c-2.07,0-4.97,.43-4.97,3.76v3.68c0,3.33,2.9,3.76,4.97,3.76h3.85c.64,0,1.22,.46,1.22,1.02v1.33c0,.56-.58,1.03-1.22,1.03h-8.82v3.98h10.04c2.07,0,4.97-.43,4.97-3.76v-3.68c0-3.33-2.9-3.76-4.97-3.76Z"/>
      <path class="cls-2" d="M114.74,.02h-10.66c-4.22,0-4.97,1.61-4.97,4.56V14.01c0,2.95,.75,4.56,4.97,4.56h10.66v-3.98h-9.24c-1.25,0-1.42-.64-1.42-1.42v-1.94h10.66v-3.86h-10.66v-1.87c0-.78,.16-1.42,1.42-1.42h9.24V.02Z"/>
      <polygon class="cls-2" points="127.51 .02 133.23 .02 126.94 9.19 126.94 9.19 133.21 18.57 127.51 18.57 121.46 9.55 121.46 18.57 116.48 18.57 116.48 0 121.46 0 121.46 8.84 127.51 .02"/>
    </g>
  </g>
</svg>